# xmcd
#
# Track frame offsets: 
#        150
#        14154
#        28889
#        48246
#        68361
#        81495
#        106264
#        121541
#        138509
#        156351
#        173121
#        188021
#        205528
#        220936
#
# Disc length: 3215 seconds
#
# Revision: 0
# Processed by: cddbd v1.5.2PL0 Copyright (c) Steve Scherf et al.
# Submitted via: ExactAudioCopy v1.0b1
#
DISCID=bb0c8d0e
DTITLE=Pert' Near Sandstone - Paradise Hop
DYEAR=2011
DGENRE=Bluegrass
TTITLE0=Ruben's Train
TTITLE1=Solid Gone
TTITLE2=Appalachian Girl
TTITLE3=Okanagan Valley
TTITLE4=Crossroads
TTITLE5=The Long Decline
TTITLE6=Save Me
TTITLE7=20 Cups of Coffee
TTITLE8=Snake Charmer
TTITLE9=Sad When That Great Bridge Came Down
TTITLE10=Maggie Dear
TTITLE11=All Night Long
TTITLE12=Parse
TTITLE13=Paradise Hop
EXTD=
EXTT0=
EXTT1=
EXTT2=
EXTT3=
EXTT4=
EXTT5=
EXTT6=
EXTT7=
EXTT8=
EXTT9=
EXTT10=
EXTT11=
EXTT12=
EXTT13=
PLAYORDER=
